# Blender v2.92.0 OBJ File: 'A.blend'
# www.blender.org
mtllib A.mtl
o Text
v 3.286262 1.226428 3.809250
v 2.012261 1.226428 0.995250
v -2.047739 1.226428 0.995250
v -3.251739 1.226428 3.809250
v -4.651739 1.226428 3.809250
v -0.549739 1.226428 -5.794751
v 0.416261 1.226428 -5.794751
v 4.686262 1.226428 3.809250
v 1.452261 1.226428 -0.236750
v -0.087739 1.226428 -3.694750
v -1.515739 1.226428 -0.236750
v 3.286262 -1.773572 3.809250
v 2.012261 -1.773572 0.995250
v -2.047739 -1.773572 0.995250
v -3.251739 -1.773572 3.809250
v -4.651739 -1.773572 3.809250
v -0.549739 -1.773572 -5.794751
v 0.416261 -1.773572 -5.794751
v 4.686262 -1.773572 3.809250
v 1.452261 -1.773572 -0.236750
v -0.087739 -1.773572 -3.694750
v -1.515739 -1.773572 -0.236750
v 3.286262 -1.773572 3.809250
v 3.286262 1.226428 3.809250
v 2.012261 -1.773572 0.995250
v 2.012261 1.226428 0.995250
v -2.047739 -1.773572 0.995250
v -2.047739 1.226428 0.995250
v -3.251739 -1.773572 3.809250
v -3.251739 1.226428 3.809250
v -4.651739 -1.773572 3.809250
v -4.651739 1.226428 3.809250
v -0.549739 -1.773572 -5.794751
v -0.549739 1.226428 -5.794751
v 0.416261 -1.773572 -5.794751
v 0.416261 1.226428 -5.794751
v 4.686262 -1.773572 3.809250
v 4.686262 1.226428 3.809250
v 1.452261 -1.773572 -0.236750
v 1.452261 1.226428 -0.236750
v -0.087739 -1.773572 -3.694750
v -0.087739 1.226428 -3.694750
v -1.515739 -1.773572 -0.236750
v -1.515739 1.226428 -0.236750
vt 0.400000 0.000000
vt 0.600000 0.000000
vt 0.500000 0.000000
vt 0.900000 0.000000
vt 0.700000 0.000000
vt 1.000000 0.000000
vt 0.800000 0.000000
vt 0.200000 0.000000
vt 0.100000 0.000000
vt 0.300000 0.000000
vt 0.000000 0.000000
vt 0.600000 0.000000
vt 0.400000 0.000000
vt 0.500000 0.000000
vt 0.900000 0.000000
vt 0.700000 0.000000
vt 1.000000 0.000000
vt 0.800000 0.000000
vt 0.200000 0.000000
vt 0.100000 0.000000
vt 0.300000 0.000000
vt 0.000000 0.000000
vt 0.125000 1.000000
vt 0.000000 0.000000
vt 0.000000 1.000000
vt 0.250000 1.000000
vt 0.125000 0.000000
vt 0.375000 1.000000
vt 0.250000 0.000000
vt 0.500000 1.000000
vt 0.375000 0.000000
vt 0.625000 1.000000
vt 0.500000 0.000000
vt 0.750000 1.000000
vt 0.625000 0.000000
vt 0.875000 1.000000
vt 0.750000 0.000000
vt 1.000000 1.000000
vt 0.875000 0.000000
vt 0.333333 1.000000
vt 0.000000 0.000000
vt 0.000000 1.000000
vt 0.666667 1.000000
vt 0.333333 0.000000
vt 1.000000 1.000000
vt 0.666667 0.000000
vt 1.000000 0.000000
vt 1.000000 0.000000
vn 0.0000 1.0000 0.0000
vn 0.0000 -1.0000 0.0000
vn -0.5420 0.0000 0.8404
vn 0.5507 0.0000 0.8347
vn -0.8345 0.0000 0.5510
vn -0.5510 0.0000 -0.8345
vn 0.5448 0.0000 -0.8385
vn 0.8385 0.0000 0.5448
vn 0.0137 0.0000 0.9999
vn -0.8387 0.0000 -0.5446
vn 0.8311 0.0000 -0.5560
g Text_Text_Material.001
usemtl Material.001
s off
f 5/1/1 7/2/1 6/3/1
f 5/1/1 10/4/1 7/2/1
f 10/4/1 8/5/1 7/2/1
f 5/1/1 11/6/1 10/4/1
f 9/7/1 8/5/1 10/4/1
f 5/1/1 3/8/1 11/6/1
f 3/8/1 9/7/1 11/6/1
f 3/8/1 2/9/1 9/7/1
f 2/9/1 8/5/1 9/7/1
f 5/1/1 4/10/1 3/8/1
f 1/11/1 8/5/1 2/9/1
f 18/12/2 16/13/2 17/14/2
f 21/15/2 16/13/2 18/12/2
f 19/16/2 21/15/2 18/12/2
f 22/17/2 16/13/2 21/15/2
f 19/16/2 20/18/2 21/15/2
f 14/19/2 16/13/2 22/17/2
f 20/18/2 14/19/2 22/17/2
f 13/20/2 14/19/2 20/18/2
f 19/16/2 13/20/2 20/18/2
f 15/21/2 16/13/2 14/19/2
f 19/16/2 12/22/2 13/20/2
s 1
f 26/23/3 23/24/3 24/25/3
f 28/26/4 25/27/3 26/23/3
f 30/28/4 27/29/4 28/26/4
f 32/30/5 29/31/4 30/28/4
f 34/32/6 31/33/5 32/30/5
f 36/34/7 33/35/6 34/32/6
f 38/36/8 35/37/7 36/34/7
f 24/38/3 37/39/8 38/36/8
f 42/40/9 39/41/10 40/42/10
f 44/43/11 41/44/9 42/40/9
f 40/45/10 43/46/11 44/43/11
f 26/23/3 25/27/3 23/24/3
f 28/26/4 27/29/4 25/27/3
f 30/28/4 29/31/4 27/29/4
f 32/30/5 31/33/5 29/31/4
f 34/32/6 33/35/6 31/33/5
f 36/34/7 35/37/7 33/35/6
f 38/36/8 37/39/8 35/37/7
f 24/38/3 23/47/3 37/39/8
f 42/40/9 41/44/9 39/41/10
f 44/43/11 43/46/11 41/44/9
f 40/45/10 39/48/10 43/46/11
