# Blender v2.80 (sub 75) OBJ File: 'trebuchet_2.blend'
# www.blender.org
mtllib A.mtl
o base_base_Cone_004
v 0.839100 -0.980900 -0.992600
v -1.151800 -4.985500 -0.993000
v 0.848200 -4.980900 -0.991000
v 0.858300 -4.984700 -10.991000
v -8.856800 -4.154300 -2.054900
v -1.020700 -2.405100 -11.248600
v -8.728100 -4.293100 -1.994100
v -8.551800 -4.383400 -1.899600
v -9.793800 -5.261000 -1.250400
v -8.085400 -4.406800 -1.625600
v -7.813100 -4.338900 -1.456600
v -7.528400 -4.220800 -1.274600
v -7.242300 -4.057000 -1.086600
v -6.965800 -3.853700 -0.900000
v -6.709500 -3.618900 -0.721700
v -6.483200 -3.361600 -0.558800
v -6.295600 -3.091500 -0.417400
v -6.154000 -2.819100 -0.303000
v -6.063700 -2.555000 -0.220000
v -6.028300 -2.309100 -0.171600
v -6.049100 -2.091000 -0.159600
v -6.125400 -1.909100 -0.184500
v -6.254100 -1.770200 -0.245300
v -6.430400 -1.679900 -0.339800
v -6.029400 -1.482800 -0.474400
v -6.896800 -1.656600 -0.613800
v -7.169100 -1.724500 -0.782800
v -9.675400 -1.830600 -0.260800
v -7.739800 -2.006400 -1.152800
v -8.016400 -2.209600 -1.339400
v -8.272700 -2.444400 -1.517700
v -8.499000 -2.701800 -1.680600
v -8.686600 -2.971800 -1.822000
v -8.828200 -3.244200 -1.936400
v -8.918500 -3.508400 -2.019400
v -8.953800 -3.754200 -2.067800
v -8.933000 -3.972300 -2.079800
v -10.019500 4.994400 -1.005700
v -10.021500 4.995200 0.994300
v 9.978400 5.040600 1.014400
v 9.980400 5.039800 -0.985600
v -9.998800 -5.004800 0.998100
v 10.001100 -4.959400 1.018200
v -9.996800 -5.005600 -1.001900
v 10.003100 -4.960100 -0.981800
v -1.023500 5.014800 -0.996700
v -1.004400 1.011101 -10.995200
v -1.014400 1.014900 -0.995200
v -1.013500 5.011100 -10.996700
v 0.995600 1.015600 -10.993200
v 0.986500 5.015601 -10.994700
v 0.985600 1.019400 -0.993200
v 0.976500 5.019400 -0.994700
v -1.160800 -0.985500 -0.994600
v -1.141700 -4.989299 -10.993000
v -1.151800 -4.985500 -0.993000
v -1.150800 -0.989300 -10.994600
v 0.858300 -4.984700 -10.991000
v 0.849200 -0.984700 -10.992600
v 0.848200 -4.980900 -0.991000
v 0.839100 -0.980900 -0.992600
v -8.870600 1.845700 -2.058000
v -1.034600 3.594900 -11.251800
v -8.741900 1.706900 -1.997200
v -8.565700 1.616600 -1.902700
v -9.807600 0.739000 -1.253500
v -8.099200 1.593200 -1.628700
v -7.826900 1.661100 -1.459700
v -7.542300 1.779200 -1.277700
v -7.256200 1.943000 -1.089800
v -6.979600 2.146200 -0.903100
v -6.723300 2.381100 -0.724900
v -6.497000 2.638400 -0.561900
v -6.309400 2.908500 -0.420600
v -6.167800 3.180800 -0.306200
v -6.077500 3.445000 -0.223200
v -6.042200 3.690900 -0.174700
v -6.063000 3.909000 -0.162700
v -6.139200 4.090900 -0.187600
v -6.267900 4.229700 -0.248500
v -6.444200 4.320100 -0.342900
v -6.043200 4.517100 -0.477600
v -6.910700 4.343400 -0.616900
v -7.182900 4.275500 -0.786000
v -9.689300 4.169400 -0.263900
v -7.753700 3.993600 -1.155900
v -8.030200 3.790400 -1.342600
v -8.286500 3.555600 -1.520800
v -8.512900 3.298200 -1.683700
v -8.700400 3.028100 -1.825100
v -8.842100 2.755800 -1.939500
v -8.932300 2.491600 -2.022500
v -8.967700 2.245700 -2.070900
v -8.946900 2.027600 -2.082900
v 8.693800 1.800800 -1.708400
v 0.986500 3.688801 -10.963000
v 8.822500 1.939600 -1.769200
v 8.517600 1.710500 -1.613900
v 9.759500 0.832900 -0.964700
v 8.051100 1.687100 -1.339900
v 7.778800 1.755000 -1.170900
v 7.494200 1.873100 -0.988900
v 7.208100 2.036900 -0.801000
v 6.931500 2.240100 -0.614300
v 6.675200 2.475000 -0.436100
v 6.448900 2.732300 -0.273100
v 6.261300 3.002400 -0.131800
v 6.119700 3.274700 -0.017400
v 6.029400 3.538900 0.065600
v 5.994100 3.784800 0.114100
v 6.014900 4.002900 0.126100
v 6.091100 4.184800 0.101200
v 6.219800 4.323600 0.040300
v 6.396100 4.414000 -0.054100
v 5.995100 4.611000 -0.188800
v 6.862600 4.437300 -0.328100
v 7.134800 4.369400 -0.497200
v 9.641200 4.263300 0.024900
v 7.705600 4.087500 -0.867100
v 7.982100 3.884300 -1.053800
v 8.238400 3.649500 -1.232000
v 8.464800 3.392100 -1.394900
v 8.652300 3.122000 -1.536300
v 8.794000 2.849700 -1.650700
v 8.884200 2.585500 -1.733700
v 8.919600 2.339600 -1.782100
v 8.898800 2.121500 -1.794100
v 8.398800 -4.293100 -1.994100
v 0.691400 -2.405100 -11.248600
v 8.527500 -4.154300 -2.054900
v 8.222500 -4.383400 -1.899600
v 9.464500 -5.261000 -1.250400
v 7.756100 -4.406800 -1.625600
v 7.483800 -4.338900 -1.456600
v 7.199100 -4.220800 -1.274600
v 6.913000 -4.057000 -1.086600
v 6.636500 -3.853700 -0.900000
v 6.380200 -3.618900 -0.721700
v 6.153900 -3.361600 -0.558800
v 5.966300 -3.091500 -0.417400
v 5.824700 -2.819100 -0.303000
v 5.734400 -2.555000 -0.220000
v 5.699000 -2.309100 -0.171600
v 5.719800 -2.091000 -0.159600
v 5.796100 -1.909100 -0.184500
v 5.924800 -1.770200 -0.245300
v 6.101100 -1.679900 -0.339800
v 5.700100 -1.482800 -0.474400
v 6.567500 -1.656600 -0.613800
v 6.839800 -1.724500 -0.782800
v 9.346100 -1.830600 -0.260800
v 7.410500 -2.006400 -1.152800
v 7.687100 -2.209600 -1.339400
v 7.943400 -2.444400 -1.517700
v 8.169700 -2.701800 -1.680600
v 8.357300 -2.971800 -1.822000
v 8.498900 -3.244200 -1.936400
v 8.589200 -3.508400 -2.019400
v 8.624500 -3.754200 -2.067800
v 8.603700 -3.972300 -2.079800
vt 0.625000 0.750000
vt 0.375000 1.000000
vt 0.375000 0.750000
vt 0.375000 0.500000
vt 0.125000 0.750000
vt 0.250000 0.490000
vt 0.250000 0.250000
vt 0.296800 0.485400
vt 0.341800 0.471700
vt 0.383300 0.449600
vt 0.419700 0.419700
vt 0.449600 0.383300
vt 0.471700 0.341800
vt 0.485400 0.296800
vt 0.490000 0.250000
vt 0.485400 0.203200
vt 0.471700 0.158200
vt 0.449600 0.116700
vt 0.419700 0.080300
vt 0.383300 0.050400
vt 0.341800 0.028300
vt 0.296800 0.014600
vt 0.250000 0.010000
vt 0.203200 0.014600
vt 0.158200 0.028300
vt 0.116700 0.050400
vt 0.080300 0.080300
vt 0.050400 0.116700
vt 0.028300 0.158200
vt 0.014600 0.203200
vt 0.010000 0.250000
vt 0.014600 0.296800
vt 0.028300 0.341800
vt 0.050400 0.383300
vt 0.080300 0.419700
vt 0.116700 0.449600
vt 0.158200 0.471700
vt 0.203200 0.485400
vt 0.919700 0.419700
vt 0.949600 0.383300
vt 0.985400 0.296800
vt 0.883300 0.449600
vt 0.971700 0.341800
vt 0.985400 0.203200
vt 0.971700 0.158200
vt 0.990000 0.250000
vt 0.949600 0.116700
vt 0.919700 0.080300
vt 0.528300 0.158200
vt 0.883300 0.050400
vt 0.841800 0.028300
vt 0.796800 0.014600
vt 0.750000 0.010000
vt 0.703200 0.014600
vt 0.616700 0.050400
vt 0.658200 0.028300
vt 0.580300 0.080300
vt 0.550400 0.116700
vt 0.514600 0.203200
vt 0.841800 0.471700
vt 0.750000 0.490000
vt 0.796800 0.485400
vt 0.528300 0.341800
vt 0.510000 0.250000
vt 0.514600 0.296800
vt 0.580300 0.419700
vt 0.550400 0.383300
vt 0.703200 0.485400
vt 0.616700 0.449600
vt 0.658200 0.471700
vt 0.625000 0.000000
vt 0.625000 0.250000
vt 0.375000 0.250000
vt 0.375000 0.000000
vt 0.625000 0.250000
vt 0.375000 0.500000
vt 0.375000 0.250000
vt 0.625000 0.500000
vt 0.375000 0.750000
vt 0.625000 0.750000
vt 0.375000 1.000000
vt 0.375000 0.500000
vt 0.125000 0.750000
vt 0.125000 0.500000
vt 0.875000 0.500000
vt 0.625000 0.500000
vt 0.625000 0.750000
vt 0.375000 0.750000
vt 0.625000 1.000000
vt 0.875000 0.750000
vt 0.625000 0.000000
vt 0.375000 0.250000
vt 0.375000 0.000000
vt 0.625000 0.250000
vt 0.375000 0.500000
vt 0.625000 0.500000
vt 0.375000 0.750000
vt 0.625000 1.000000
vt 0.375000 1.000000
vt 0.625000 0.750000
vt 0.125000 0.500000
vt 0.125000 0.750000
vt 0.875000 0.500000
vt 0.875000 0.750000
vt 0.625000 0.000000
vt 0.375000 0.250000
vt 0.375000 0.000000
vt 0.625000 0.250000
vt 0.375000 0.500000
vt 0.625000 0.500000
vt 0.375000 0.750000
vt 0.125000 0.750000
vt 0.125000 0.500000
vt 0.875000 0.500000
vt 0.625000 0.750000
vt 0.625000 1.000000
vt 0.375000 1.000000
vt 0.875000 0.750000
vt 0.250000 0.490000
vt 0.250000 0.250000
vt 0.296800 0.485400
vt 0.341800 0.471700
vt 0.383300 0.449600
vt 0.419700 0.419700
vt 0.449600 0.383300
vt 0.471700 0.341800
vt 0.485400 0.296800
vt 0.490000 0.250000
vt 0.485400 0.203200
vt 0.471700 0.158200
vt 0.449600 0.116700
vt 0.419700 0.080300
vt 0.383300 0.050400
vt 0.341800 0.028300
vt 0.296800 0.014600
vt 0.250000 0.010000
vt 0.203200 0.014600
vt 0.158200 0.028300
vt 0.116700 0.050400
vt 0.080300 0.080300
vt 0.050400 0.116700
vt 0.028300 0.158200
vt 0.014600 0.203200
vt 0.010000 0.250000
vt 0.014600 0.296800
vt 0.028300 0.341800
vt 0.050400 0.383300
vt 0.080300 0.419700
vt 0.116700 0.449600
vt 0.158200 0.471700
vt 0.203200 0.485400
vt 0.919700 0.419700
vt 0.949600 0.383300
vt 0.985400 0.296800
vt 0.883300 0.449600
vt 0.971700 0.341800
vt 0.985400 0.203200
vt 0.971700 0.158200
vt 0.990000 0.250000
vt 0.949600 0.116700
vt 0.919700 0.080300
vt 0.528300 0.158200
vt 0.883300 0.050400
vt 0.841800 0.028300
vt 0.796800 0.014600
vt 0.750000 0.010000
vt 0.703200 0.014600
vt 0.616700 0.050400
vt 0.658200 0.028300
vt 0.580300 0.080300
vt 0.550400 0.116700
vt 0.514600 0.203200
vt 0.841800 0.471700
vt 0.750000 0.490000
vt 0.796800 0.485400
vt 0.528300 0.341800
vt 0.510000 0.250000
vt 0.514600 0.296800
vt 0.580300 0.419700
vt 0.550400 0.383300
vt 0.703200 0.485400
vt 0.616700 0.449600
vt 0.658200 0.471700
vt 0.296800 0.485400
vt 0.250000 0.250000
vt 0.250000 0.490000
vt 0.341800 0.471700
vt 0.383300 0.449600
vt 0.419700 0.419700
vt 0.449600 0.383300
vt 0.471700 0.341800
vt 0.485400 0.296800
vt 0.490000 0.250000
vt 0.485400 0.203200
vt 0.471700 0.158200
vt 0.449600 0.116700
vt 0.419700 0.080300
vt 0.383300 0.050400
vt 0.341800 0.028300
vt 0.296800 0.014600
vt 0.250000 0.010000
vt 0.203200 0.014600
vt 0.158200 0.028300
vt 0.116700 0.050400
vt 0.080300 0.080300
vt 0.050400 0.116700
vt 0.028300 0.158200
vt 0.014600 0.203200
vt 0.010000 0.250000
vt 0.014600 0.296800
vt 0.028300 0.341800
vt 0.050400 0.383300
vt 0.080300 0.419700
vt 0.116700 0.449600
vt 0.158200 0.471700
vt 0.203200 0.485400
vt 0.985400 0.296800
vt 0.949600 0.383300
vt 0.919700 0.419700
vt 0.883300 0.449600
vt 0.971700 0.341800
vt 0.971700 0.158200
vt 0.985400 0.203200
vt 0.990000 0.250000
vt 0.919700 0.080300
vt 0.949600 0.116700
vt 0.528300 0.158200
vt 0.841800 0.028300
vt 0.883300 0.050400
vt 0.796800 0.014600
vt 0.703200 0.014600
vt 0.750000 0.010000
vt 0.616700 0.050400
vt 0.658200 0.028300
vt 0.580300 0.080300
vt 0.550400 0.116700
vt 0.514600 0.203200
vt 0.841800 0.471700
vt 0.796800 0.485400
vt 0.750000 0.490000
vt 0.510000 0.250000
vt 0.528300 0.341800
vt 0.514600 0.296800
vt 0.580300 0.419700
vt 0.550400 0.383300
vt 0.703200 0.485400
vt 0.658200 0.471700
vt 0.616700 0.449600
vt 0.296800 0.485400
vt 0.250000 0.250000
vt 0.250000 0.490000
vt 0.341800 0.471700
vt 0.383300 0.449600
vt 0.419700 0.419700
vt 0.449600 0.383300
vt 0.471700 0.341800
vt 0.485400 0.296800
vt 0.490000 0.250000
vt 0.485400 0.203200
vt 0.471700 0.158200
vt 0.449600 0.116700
vt 0.419700 0.080300
vt 0.383300 0.050400
vt 0.341800 0.028300
vt 0.296800 0.014600
vt 0.250000 0.010000
vt 0.203200 0.014600
vt 0.158200 0.028300
vt 0.116700 0.050400
vt 0.080300 0.080300
vt 0.050400 0.116700
vt 0.028300 0.158200
vt 0.014600 0.203200
vt 0.010000 0.250000
vt 0.014600 0.296800
vt 0.028300 0.341800
vt 0.050400 0.383300
vt 0.080300 0.419700
vt 0.116700 0.449600
vt 0.158200 0.471700
vt 0.203200 0.485400
vt 0.985400 0.296800
vt 0.949600 0.383300
vt 0.919700 0.419700
vt 0.883300 0.449600
vt 0.971700 0.341800
vt 0.971700 0.158200
vt 0.985400 0.203200
vt 0.990000 0.250000
vt 0.919700 0.080300
vt 0.949600 0.116700
vt 0.528300 0.158200
vt 0.841800 0.028300
vt 0.883300 0.050400
vt 0.796800 0.014600
vt 0.703200 0.014600
vt 0.750000 0.010000
vt 0.616700 0.050400
vt 0.658200 0.028300
vt 0.580300 0.080300
vt 0.550400 0.116700
vt 0.514600 0.203200
vt 0.841800 0.471700
vt 0.796800 0.485400
vt 0.750000 0.490000
vt 0.510000 0.250000
vt 0.528300 0.341800
vt 0.514600 0.296800
vt 0.580300 0.419700
vt 0.550400 0.383300
vt 0.703200 0.485400
vt 0.658200 0.471700
vt 0.616700 0.449600
vn -0.0010 0.0004 1.0000
vn 0.0012 -0.7783 0.6279
vn 0.0009 -0.7068 0.7074
vn 0.0023 -1.0000 0.0004
vn -0.8537 -0.5012 0.1414
vn 0.5396 0.0521 -0.8403
vn -0.6707 -0.7005 0.2440
vn -0.9072 0.2008 -0.3697
vn -0.7335 -0.6719 0.1029
vn 0.3982 -0.9163 0.0429
vn -0.1396 -0.7711 0.6212
vn -0.0732 -0.7386 0.6702
vn 0.2647 -0.7735 0.5759
vn 0.0353 -0.6646 0.7463
vn 0.0825 -0.6200 0.7802
vn 0.1321 -0.5686 0.8120
vn 0.1840 -0.5039 0.8439
vn 0.3853 -0.3605 0.8494
vn 0.2945 -0.2952 0.9089
vn 0.3381 -0.1172 0.9338
vn -0.0937 0.4396 0.8933
vn 0.2341 0.3934 0.8891
vn 0.4203 0.2869 -0.8608
vn 0.9453 -0.0570 -0.3212
vn 0.0670 -0.3687 0.9272
vn -0.1056 0.8558 0.5064
vn -0.0961 0.9812 -0.1675
vn -0.8302 0.4484 0.3311
vn -0.7718 -0.3488 -0.5317
vn -0.7289 0.5655 0.3858
vn -0.7793 0.5213 0.3478
vn -0.8277 0.4666 0.3117
vn -0.8760 0.3992 0.2708
vn -0.9238 0.3098 0.2251
vn -0.9671 0.1844 0.1750
vn -0.9919 0.0046 0.1267
vn -0.9658 -0.2374 0.1041
vn -0.5781 0.5758 -0.5782
vn -0.5792 0.5763 0.5765
vn 0.5755 0.5789 0.5777
vn 0.5766 0.5784 -0.5770
vn -0.5766 -0.5784 0.5770
vn 0.5781 -0.5758 0.5781
vn -0.5755 -0.5789 -0.5777
vn 0.5792 -0.5762 -0.5766
vn -0.5792 0.5762 0.5766
vn -0.5781 0.5758 -0.5781
vn 0.5792 -0.5763 -0.5766
vn -0.9522 -0.1217 0.2801
vn 0.6032 -0.5247 -0.6006
vn 1.0000 0.0023 0.0010
vn 0.6310 0.6345 0.4464
vn -0.8536 -0.5014 0.1415
vn 0.5394 0.0520 -0.8404
vn -0.6707 -0.7005 0.2437
vn -0.9072 0.2008 -0.3698
vn -0.7335 -0.6719 0.1030
vn -0.1397 -0.7711 0.6213
vn -0.0742 -0.7376 0.6711
vn 0.2646 -0.7735 0.5759
vn 0.0340 -0.6638 0.7471
vn 0.0832 -0.6204 0.7798
vn 0.1319 -0.5685 0.8121
vn 0.1849 -0.5042 0.8435
vn 0.3854 -0.3606 0.8494
vn 0.2958 -0.2954 0.9084
vn 0.3378 -0.1172 0.9339
vn -0.0939 0.4393 0.8934
vn 0.2340 0.3935 0.8890
vn 0.4202 0.2873 -0.8607
vn 0.9452 -0.0573 -0.3215
vn 0.0669 -0.3687 0.9271
vn -0.7717 -0.3488 -0.5317
vn -0.7290 0.5665 0.3843
vn -0.7792 0.5211 0.3482
vn -0.8278 0.4665 0.3116
vn -0.8760 0.3996 0.2701
vn -0.9238 0.3099 0.2250
vn -0.9672 0.1845 0.1746
vn -0.9919 0.0047 0.1272
vn -0.9657 -0.2377 0.1041
vn 0.6707 -0.7005 0.2437
vn -0.5394 0.0523 -0.8404
vn 0.8536 -0.5014 0.1415
vn 0.9072 0.2008 -0.3698
vn 0.7335 -0.6719 0.1030
vn -0.3982 -0.9163 0.0429
vn 0.1397 -0.7710 0.6213
vn 0.0742 -0.7376 0.6711
vn -0.2646 -0.7735 0.5759
vn -0.0340 -0.6638 0.7472
vn -0.0832 -0.6204 0.7798
vn -0.1319 -0.5685 0.8121
vn -0.1849 -0.5042 0.8436
vn -0.3854 -0.3606 0.8494
vn -0.2958 -0.2954 0.9084
vn -0.3378 -0.1172 0.9339
vn 0.0939 0.4393 0.8934
vn -0.2340 0.3936 0.8890
vn -0.4202 0.2873 -0.8607
vn -0.9452 -0.0573 -0.3215
vn -0.0669 -0.3687 0.9271
vn 0.1056 0.8558 0.5064
vn 0.0961 0.9812 -0.1675
vn 0.8302 0.4484 0.3311
vn 0.7717 -0.3488 -0.5317
vn 0.7290 0.5665 0.3843
vn 0.7792 0.5211 0.3482
vn 0.8278 0.4665 0.3116
vn 0.8760 0.3996 0.2701
vn 0.9238 0.3099 0.2250
vn 0.9672 0.1845 0.1746
vn 0.9919 0.0047 0.1272
vn 0.9657 -0.2377 0.1041
vn 0.6707 -0.7005 0.2440
vn -0.5396 0.0521 -0.8403
vn 0.8537 -0.5012 0.1414
vn 0.9072 0.2008 -0.3697
vn 0.7335 -0.6719 0.1029
vn 0.1396 -0.7711 0.6212
vn 0.0732 -0.7386 0.6702
vn -0.2647 -0.7735 0.5759
vn -0.0353 -0.6646 0.7463
vn -0.0825 -0.6200 0.7802
vn -0.1321 -0.5686 0.8120
vn -0.1840 -0.5039 0.8439
vn -0.3853 -0.3605 0.8494
vn -0.2945 -0.2952 0.9089
vn -0.3381 -0.1172 0.9338
vn 0.0937 0.4396 0.8933
vn -0.2341 0.3934 0.8891
vn -0.4203 0.2869 -0.8608
vn -0.9453 -0.0570 -0.3212
vn -0.0670 -0.3687 0.9272
vn 0.7718 -0.3488 -0.5317
vn 0.7289 0.5655 0.3858
vn 0.7793 0.5213 0.3478
vn 0.8277 0.4666 0.3117
vn 0.8760 0.3992 0.2708
vn 0.9238 0.3098 0.2251
vn 0.9671 0.1844 0.1750
vn 0.9919 0.0046 0.1267
vn 0.9658 -0.2374 0.1041
usemtl Material_001
s 1
f 1/1/1 2/2/2 3/3/3
f 4/4/4 3/3/3 2/5/2
f 5/6/5 6/7/6 7/8/7
f 7/8/7 6/7/6 8/9/8
f 8/9/8 6/7/6 9/10/9
f 9/10/9 6/7/6 10/11/10
f 10/11/10 6/7/6 11/12/11
f 11/12/11 6/7/6 12/13/12
f 12/13/12 6/7/6 13/14/13
f 13/14/13 6/7/6 14/15/14
f 14/15/14 6/7/6 15/16/15
f 15/16/15 6/7/6 16/17/16
f 16/17/16 6/7/6 17/18/17
f 17/18/17 6/7/6 18/19/18
f 18/19/18 6/7/6 19/20/19
f 19/20/19 6/7/6 20/21/20
f 20/21/20 6/7/6 21/22/21
f 21/22/21 6/7/6 22/23/22
f 22/23/22 6/7/6 23/24/23
f 23/24/23 6/7/6 24/25/24
f 24/25/24 6/7/6 25/26/25
f 25/26/25 6/7/6 26/27/26
f 26/27/26 6/7/6 27/28/27
f 27/28/27 6/7/6 28/29/28
f 28/29/28 6/7/6 29/30/29
f 29/30/29 6/7/6 30/31/30
f 30/31/30 6/7/6 31/32/31
f 31/32/31 6/7/6 32/33/32
f 32/33/32 6/7/6 33/34/33
f 33/34/33 6/7/6 34/35/34
f 34/35/34 6/7/6 35/36/35
f 35/36/35 6/7/6 36/37/36
f 36/37/36 6/7/6 37/38/37
f 37/38/37 6/7/6 5/6/5
f 10/39/10 11/40/11 13/41/13
f 13/41/13 9/42/9 10/39/10
f 11/40/11 12/43/12 13/41/13
f 15/44/15 16/45/16 13/41/13
f 13/41/13 14/46/14 15/44/15
f 16/45/16 17/47/17 18/48/18
f 18/48/18 13/41/13 16/45/16
f 28/49/28 9/42/9 13/41/13
f 13/41/13 18/48/18 28/49/28
f 18/48/18 19/50/19 20/51/20
f 20/51/20 21/52/21 18/48/18
f 21/52/21 22/53/22 23/54/23
f 23/54/23 25/55/25 21/52/21
f 23/54/23 24/56/24 25/55/25
f 18/48/18 21/52/21 25/55/25
f 25/55/25 26/57/26 18/48/18
f 28/49/28 18/48/18 26/57/26
f 26/57/26 27/58/27 28/49/28
f 9/42/9 28/49/28 29/59/29
f 29/59/29 8/60/8 9/42/9
f 5/61/5 7/62/7 8/60/8
f 8/60/8 29/59/29 5/61/5
f 32/63/32 29/59/29 30/64/30
f 30/64/30 31/65/31 32/63/32
f 34/66/34 29/59/29 32/63/32
f 32/63/32 33/67/33 34/66/34
f 37/68/37 5/61/5 29/59/29
f 29/59/29 34/66/34 37/68/37
f 35/69/35 36/70/36 37/68/37
f 37/68/37 34/66/34 35/69/35
f 38/71/38 39/72/39 40/73/40
f 40/73/40 41/74/41 38/71/38
f 40/75/40 42/76/42 43/77/43
f 39/78/39 44/79/44 42/76/42
f 45/80/45 42/81/42 44/79/44
f 41/82/41 43/83/43 45/84/45
f 38/85/38 45/80/45 44/86/44
f 39/78/39 38/87/38 44/79/44
f 40/75/40 39/78/39 42/76/42
f 41/82/41 40/88/40 43/83/43
f 45/80/45 43/89/43 42/81/42
f 38/85/38 41/90/41 45/80/45
f 46/91/46 47/92/44 48/93/42
f 49/94/47 50/95/48 47/92/44
f 51/96/41 52/97/43 50/95/48
f 46/98/46 48/99/42 52/97/43
f 52/97/43 53/100/40 46/98/46
f 47/101/44 52/97/43 48/102/42
f 49/103/47 46/104/46 53/100/40
f 53/100/40 51/96/41 49/103/47
f 47/101/44 50/95/48 52/97/43
f 46/91/46 49/94/47 47/92/44
f 49/94/47 51/96/41 50/95/48
f 51/96/41 53/100/40 52/97/43
f 54/105/39 55/106/44 56/107/49
f 57/108/38 58/109/50 55/106/44
f 59/110/41 60/111/51 58/109/50
f 58/109/50 56/112/49 55/113/44
f 57/114/38 61/115/52 59/110/41
f 54/105/39 57/108/38 55/106/44
f 57/108/38 59/110/41 58/109/50
f 59/110/41 61/115/52 60/111/51
f 61/115/52 54/116/39 56/117/49
f 57/114/38 54/118/39 61/115/52
f 62/119/53 63/120/54 64/121/55
f 64/121/55 63/120/54 65/122/56
f 65/122/56 63/120/54 66/123/57
f 66/123/57 63/120/54 67/124/10
f 67/124/10 63/120/54 68/125/58
f 68/125/58 63/120/54 69/126/59
f 69/126/59 63/120/54 70/127/60
f 70/127/60 63/120/54 71/128/61
f 71/128/61 63/120/54 72/129/62
f 72/129/62 63/120/54 73/130/63
f 73/130/63 63/120/54 74/131/64
f 74/131/64 63/120/54 75/132/65
f 75/132/65 63/120/54 76/133/66
f 76/133/66 63/120/54 77/134/67
f 77/134/67 63/120/54 78/135/68
f 78/135/68 63/120/54 79/136/69
f 79/136/69 63/120/54 80/137/70
f 80/137/70 63/120/54 81/138/71
f 81/138/71 63/120/54 82/139/72
f 82/139/72 63/120/54 83/140/26
f 83/140/26 63/120/54 84/141/27
f 84/141/27 63/120/54 85/142/28
f 85/142/28 63/120/54 86/143/73
f 86/143/73 63/120/54 87/144/74
f 87/144/74 63/120/54 88/145/75
f 88/145/75 63/120/54 89/146/76
f 89/146/76 63/120/54 90/147/77
f 90/147/77 63/120/54 91/148/78
f 91/148/78 63/120/54 92/149/79
f 92/149/79 63/120/54 93/150/80
f 93/150/80 63/120/54 94/151/81
f 94/151/81 63/120/54 62/119/53
f 67/152/10 68/153/58 70/154/60
f 70/154/60 66/155/57 67/152/10
f 68/153/58 69/156/59 70/154/60
f 72/157/62 73/158/63 70/154/60
f 70/154/60 71/159/61 72/157/62
f 73/158/63 74/160/64 75/161/65
f 75/161/65 70/154/60 73/158/63
f 85/162/28 66/155/57 70/154/60
f 70/154/60 75/161/65 85/162/28
f 75/161/65 76/163/66 77/164/67
f 77/164/67 78/165/68 75/161/65
f 78/165/68 79/166/69 80/167/70
f 80/167/70 82/168/72 78/165/68
f 80/167/70 81/169/71 82/168/72
f 75/161/65 78/165/68 82/168/72
f 82/168/72 83/170/26 75/161/65
f 85/162/28 75/161/65 83/170/26
f 83/170/26 84/171/27 85/162/28
f 66/155/57 85/162/28 86/172/73
f 86/172/73 65/173/56 66/155/57
f 62/174/53 64/175/55 65/173/56
f 65/173/56 86/172/73 62/174/53
f 89/176/76 86/172/73 87/177/74
f 87/177/74 88/178/75 89/176/76
f 91/179/78 86/172/73 89/176/76
f 89/176/76 90/180/77 91/179/78
f 94/181/81 62/174/53 86/172/73
f 86/172/73 91/179/78 94/181/81
f 92/182/79 93/183/80 94/181/81
f 94/181/81 91/179/78 92/182/79
f 95/184/82 96/185/83 97/186/84
f 98/187/85 96/185/83 95/184/82
f 99/188/86 96/185/83 98/187/85
f 100/189/87 96/185/83 99/188/86
f 101/190/88 96/185/83 100/189/87
f 102/191/89 96/185/83 101/190/88
f 103/192/90 96/185/83 102/191/89
f 104/193/91 96/185/83 103/192/90
f 105/194/92 96/185/83 104/193/91
f 106/195/93 96/185/83 105/194/92
f 107/196/94 96/185/83 106/195/93
f 108/197/95 96/185/83 107/196/94
f 109/198/96 96/185/83 108/197/95
f 110/199/97 96/185/83 109/198/96
f 111/200/98 96/185/83 110/199/97
f 112/201/99 96/185/83 111/200/98
f 113/202/100 96/185/83 112/201/99
f 114/203/101 96/185/83 113/202/100
f 115/204/102 96/185/83 114/203/101
f 116/205/103 96/185/83 115/204/102
f 117/206/104 96/185/83 116/205/103
f 118/207/105 96/185/83 117/206/104
f 119/208/106 96/185/83 118/207/105
f 120/209/107 96/185/83 119/208/106
f 121/210/108 96/185/83 120/209/107
f 122/211/109 96/185/83 121/210/108
f 123/212/110 96/185/83 122/211/109
f 124/213/111 96/185/83 123/212/110
f 125/214/112 96/185/83 124/213/111
f 126/215/113 96/185/83 125/214/112
f 127/216/114 96/185/83 126/215/113
f 97/186/84 96/185/83 127/216/114
f 103/217/90 101/218/88 100/219/87
f 100/219/87 99/220/86 103/217/90
f 103/217/90 102/221/89 101/218/88
f 103/217/90 106/222/93 105/223/92
f 105/223/92 104/224/91 103/217/90
f 108/225/95 107/226/94 106/222/93
f 106/222/93 103/217/90 108/225/95
f 103/217/90 99/220/86 118/227/105
f 118/227/105 108/225/95 103/217/90
f 110/228/97 109/229/96 108/225/95
f 108/225/95 111/230/98 110/228/97
f 113/231/100 112/232/99 111/230/98
f 111/230/98 115/233/102 113/231/100
f 115/233/102 114/234/101 113/231/100
f 115/233/102 111/230/98 108/225/95
f 108/225/95 116/235/103 115/233/102
f 116/235/103 108/225/95 118/227/105
f 118/227/105 117/236/104 116/235/103
f 119/237/106 118/227/105 99/220/86
f 99/220/86 98/238/85 119/237/106
f 98/238/85 95/239/82 97/240/84
f 97/240/84 119/237/106 98/238/85
f 120/241/107 119/237/106 122/242/109
f 122/242/109 121/243/108 120/241/107
f 122/242/109 119/237/106 124/244/111
f 124/244/111 123/245/110 122/242/109
f 119/237/106 97/240/84 127/246/114
f 127/246/114 124/244/111 119/237/106
f 127/246/114 126/247/113 125/248/112
f 125/248/112 124/244/111 127/246/114
f 128/249/115 129/250/116 130/251/117
f 131/252/118 129/250/116 128/249/115
f 132/253/119 129/250/116 131/252/118
f 133/254/87 129/250/116 132/253/119
f 134/255/120 129/250/116 133/254/87
f 135/256/121 129/250/116 134/255/120
f 136/257/122 129/250/116 135/256/121
f 137/258/123 129/250/116 136/257/122
f 138/259/124 129/250/116 137/258/123
f 139/260/125 129/250/116 138/259/124
f 140/261/126 129/250/116 139/260/125
f 141/262/127 129/250/116 140/261/126
f 142/263/128 129/250/116 141/262/127
f 143/264/129 129/250/116 142/263/128
f 144/265/130 129/250/116 143/264/129
f 145/266/131 129/250/116 144/265/130
f 146/267/132 129/250/116 145/266/131
f 147/268/133 129/250/116 146/267/132
f 148/269/134 129/250/116 147/268/133
f 149/270/103 129/250/116 148/269/134
f 150/271/104 129/250/116 149/270/103
f 151/272/105 129/250/116 150/271/104
f 152/273/135 129/250/116 151/272/105
f 153/274/136 129/250/116 152/273/135
f 154/275/137 129/250/116 153/274/136
f 155/276/138 129/250/116 154/275/137
f 156/277/139 129/250/116 155/276/138
f 157/278/140 129/250/116 156/277/139
f 158/279/141 129/250/116 157/278/140
f 159/280/142 129/250/116 158/279/141
f 160/281/143 129/250/116 159/280/142
f 130/251/117 129/250/116 160/281/143
f 136/282/122 134/283/120 133/284/87
f 133/284/87 132/285/119 136/282/122
f 136/282/122 135/286/121 134/283/120
f 136/282/122 139/287/125 138/288/124
f 138/288/124 137/289/123 136/282/122
f 141/290/127 140/291/126 139/287/125
f 139/287/125 136/282/122 141/290/127
f 136/282/122 132/285/119 151/292/105
f 151/292/105 141/290/127 136/282/122
f 143/293/129 142/294/128 141/290/127
f 141/290/127 144/295/130 143/293/129
f 146/296/132 145/297/131 144/295/130
f 144/295/130 148/298/134 146/296/132
f 148/298/134 147/299/133 146/296/132
f 148/298/134 144/295/130 141/290/127
f 141/290/127 149/300/103 148/298/134
f 149/300/103 141/290/127 151/292/105
f 151/292/105 150/301/104 149/300/103
f 152/302/135 151/292/105 132/285/119
f 132/285/119 131/303/118 152/302/135
f 131/303/118 128/304/115 130/305/117
f 130/305/117 152/302/135 131/303/118
f 153/306/136 152/302/135 155/307/138
f 155/307/138 154/308/137 153/306/136
f 155/307/138 152/302/135 157/309/140
f 157/309/140 156/310/139 155/307/138
f 152/302/135 130/305/117 160/311/143
f 160/311/143 157/309/140 152/302/135
f 160/311/143 159/312/142 158/313/141
f 158/313/141 157/309/140 160/311/143
